<mxfile host="app.diagrams.net" modified="2023-09-15T08:41:12.828Z" agent="Mozilla/5.0 (Macintosh; Intel Mac OS X 10_15_7) AppleWebKit/537.36 (KHTML, like Gecko) Chrome/116.0.0.0 Safari/537.36" etag="JrnB2TdEeM7NFAnhq7ZQ" version="21.7.4" type="device">
  <diagram name="Page-1" id="WvozrUVZOoh1qdNWdW4K">
    <mxGraphModel dx="954" dy="544" grid="1" gridSize="10" guides="1" tooltips="1" connect="1" arrows="1" fold="1" page="1" pageScale="1" pageWidth="1100" pageHeight="1700" math="0" shadow="0">
      <root>
        <mxCell id="0" />
        <mxCell id="1" parent="0" />
        <mxCell id="DwRocK1xrInT-ZgnkQTr-28" value="&lt;font style=&quot;font-size: 16px;&quot;&gt;&lt;b style=&quot;&quot;&gt;Ploce&amp;nbsp;&lt;/b&gt;&lt;b&gt;&lt;font style=&quot;font-size: 16px;&quot;&gt;Incident&lt;br&gt;&lt;/font&gt;&lt;/b&gt;&lt;b style=&quot;&quot;&gt;&amp;nbsp;System&lt;/b&gt;&lt;/font&gt;" style="rounded=1;absoluteArcSize=1;html=1;arcSize=10;whiteSpace=wrap;points=[];strokeColor=inherit;fillColor=inherit;shadow=0;strokeWidth=2;" vertex="1" parent="1">
          <mxGeometry x="1060" y="575" width="160" height="60" as="geometry" />
        </mxCell>
        <mxCell id="DwRocK1xrInT-ZgnkQTr-1" value="" style="rounded=1;absoluteArcSize=2;html=1;arcSize=10;strokeWidth=3;fillColor=#E8EFFC;strokeColor=#6c8ebf;" vertex="1" parent="1">
          <mxGeometry x="361.36" y="270" width="650" height="412.97" as="geometry" />
        </mxCell>
        <mxCell id="DwRocK1xrInT-ZgnkQTr-2" value="" style="html=1;shape=mxgraph.er.anchor;whiteSpace=wrap;" vertex="1" parent="DwRocK1xrInT-ZgnkQTr-1">
          <mxGeometry width="311.37724550898207" height="412.9699999999999" as="geometry" />
        </mxCell>
        <mxCell id="DwRocK1xrInT-ZgnkQTr-4" value="&lt;font size=&quot;1&quot; style=&quot;&quot;&gt;&lt;b style=&quot;font-size: 16px;&quot;&gt;AI Model&lt;/b&gt;&lt;/font&gt;" style="rounded=1;absoluteArcSize=1;html=1;arcSize=10;whiteSpace=wrap;points=[];shadow=0;strokeWidth=2;" vertex="1" parent="DwRocK1xrInT-ZgnkQTr-1">
          <mxGeometry x="501" y="302.68" width="124.59" height="71.84" as="geometry" />
        </mxCell>
        <mxCell id="DwRocK1xrInT-ZgnkQTr-12" value="&lt;font size=&quot;1&quot; style=&quot;&quot;&gt;&lt;b style=&quot;font-size: 16px;&quot;&gt;Behavior Decision Engine&lt;/b&gt;&lt;/font&gt;" style="rounded=1;absoluteArcSize=1;html=1;arcSize=10;whiteSpace=wrap;points=[];shadow=0;strokeWidth=2;" vertex="1" parent="DwRocK1xrInT-ZgnkQTr-1">
          <mxGeometry x="240" y="271.96" width="150" height="75.37" as="geometry" />
        </mxCell>
        <mxCell id="DwRocK1xrInT-ZgnkQTr-13" value="&lt;font size=&quot;1&quot; style=&quot;&quot;&gt;&lt;b style=&quot;font-size: 16px;&quot;&gt;Data Collector&lt;/b&gt;&lt;/font&gt;" style="rounded=1;absoluteArcSize=1;html=1;arcSize=10;whiteSpace=wrap;points=[];shadow=0;strokeWidth=2;" vertex="1" parent="DwRocK1xrInT-ZgnkQTr-1">
          <mxGeometry x="25.71" y="301.16" width="104.29" height="75.37" as="geometry" />
        </mxCell>
        <mxCell id="DwRocK1xrInT-ZgnkQTr-17" value="&lt;font style=&quot;font-size: 18px;&quot;&gt;&lt;b&gt;Alert Server&lt;/b&gt;&lt;/font&gt;" style="rounded=1;absoluteArcSize=1;html=1;arcSize=10;whiteSpace=wrap;points=[];shadow=0;strokeWidth=2;" vertex="1" parent="DwRocK1xrInT-ZgnkQTr-1">
          <mxGeometry x="222.39701492537316" y="61.51431707317073" width="185.8029850746269" height="61.44187804878049" as="geometry" />
        </mxCell>
        <mxCell id="DwRocK1xrInT-ZgnkQTr-18" value="" style="endArrow=classic;html=1;rounded=0;entryX=0.497;entryY=1.031;entryDx=0;entryDy=0;entryPerimeter=0;exitX=0.498;exitY=0.016;exitDx=0;exitDy=0;exitPerimeter=0;" edge="1" parent="DwRocK1xrInT-ZgnkQTr-1" source="DwRocK1xrInT-ZgnkQTr-12" target="DwRocK1xrInT-ZgnkQTr-17">
          <mxGeometry width="50" height="50" relative="1" as="geometry">
            <mxPoint x="325" y="231.6660975609756" as="sourcePoint" />
            <mxPoint x="286.1940298507463" y="20.14487804878049" as="targetPoint" />
          </mxGeometry>
        </mxCell>
        <mxCell id="DwRocK1xrInT-ZgnkQTr-16" value="" style="image;html=1;image=img/lib/clip_art/computers/Network_2_128x128.png" vertex="1" parent="DwRocK1xrInT-ZgnkQTr-1">
          <mxGeometry x="291.04477611940297" y="151.08658536585367" width="48.507462686567166" height="60.43463414634145" as="geometry" />
        </mxCell>
        <mxCell id="DwRocK1xrInT-ZgnkQTr-19" value="" style="image;html=1;image=img/lib/clip_art/computers/Database_128x128.png" vertex="1" parent="DwRocK1xrInT-ZgnkQTr-1">
          <mxGeometry x="45.00000000000001" y="230.6905233933162" width="55.69" height="58.81372236503856" as="geometry" />
        </mxCell>
        <mxCell id="DwRocK1xrInT-ZgnkQTr-21" value="" style="endArrow=classic;html=1;rounded=0;entryX=0.497;entryY=1.031;entryDx=0;entryDy=0;entryPerimeter=0;exitX=0.497;exitY=0.033;exitDx=0;exitDy=0;exitPerimeter=0;" edge="1" parent="DwRocK1xrInT-ZgnkQTr-1" source="DwRocK1xrInT-ZgnkQTr-12" target="DwRocK1xrInT-ZgnkQTr-20">
          <mxGeometry width="50" height="50" relative="1" as="geometry">
            <mxPoint x="508.3582089552239" y="314.26009756097557" as="sourcePoint" />
            <mxPoint x="508.3582089552239" y="190.36909756097558" as="targetPoint" />
          </mxGeometry>
        </mxCell>
        <mxCell id="DwRocK1xrInT-ZgnkQTr-20" value="" style="image;html=1;image=img/lib/clip_art/computers/Software_128x128.png" vertex="1" parent="DwRocK1xrInT-ZgnkQTr-1">
          <mxGeometry x="295.8905970149254" y="222.9430243902439" width="43.65671641791045" height="40.28975609756098" as="geometry" />
        </mxCell>
        <mxCell id="DwRocK1xrInT-ZgnkQTr-22" value="" style="image;html=1;image=img/lib/clip_art/networking/Cloud_Server_Private_128x128.png" vertex="1" parent="DwRocK1xrInT-ZgnkQTr-1">
          <mxGeometry x="284.34328358208955" y="10.961183644189381" width="58.2089552238806" height="60.43463414634145" as="geometry" />
        </mxCell>
        <mxCell id="DwRocK1xrInT-ZgnkQTr-23" value="" style="image;html=1;image=img/lib/clip_art/computers/Data_Filtering_128x128.png" vertex="1" parent="DwRocK1xrInT-ZgnkQTr-1">
          <mxGeometry x="528.04" y="222.94" width="71.96" height="77.06" as="geometry" />
        </mxCell>
        <mxCell id="DwRocK1xrInT-ZgnkQTr-24" value="" style="endArrow=none;html=1;rounded=0;exitX=1.002;exitY=0.474;exitDx=0;exitDy=0;exitPerimeter=0;entryX=-0.008;entryY=0.383;entryDx=0;entryDy=0;entryPerimeter=0;" edge="1" parent="DwRocK1xrInT-ZgnkQTr-1" source="DwRocK1xrInT-ZgnkQTr-13" target="DwRocK1xrInT-ZgnkQTr-12">
          <mxGeometry width="50" height="50" relative="1" as="geometry">
            <mxPoint x="291.04477611940297" y="221.59365853658534" as="sourcePoint" />
            <mxPoint x="339.55223880597015" y="171.23146341463413" as="targetPoint" />
          </mxGeometry>
        </mxCell>
        <mxCell id="DwRocK1xrInT-ZgnkQTr-25" value="" style="endArrow=none;html=1;rounded=0;exitX=-0.001;exitY=0.509;exitDx=0;exitDy=0;exitPerimeter=0;entryX=0.999;entryY=0.45;entryDx=0;entryDy=0;entryPerimeter=0;" edge="1" parent="DwRocK1xrInT-ZgnkQTr-1" source="DwRocK1xrInT-ZgnkQTr-4" target="DwRocK1xrInT-ZgnkQTr-12">
          <mxGeometry width="50" height="50" relative="1" as="geometry">
            <mxPoint x="216.34328358208955" y="346.49190243902433" as="sourcePoint" />
            <mxPoint x="232.8358208955224" y="311.23836585365854" as="targetPoint" />
          </mxGeometry>
        </mxCell>
        <mxCell id="DwRocK1xrInT-ZgnkQTr-42" value="&lt;font style=&quot;font-size: 14px;&quot;&gt;&lt;b&gt;send/save&lt;/b&gt;&lt;/font&gt;" style="edgeLabel;resizable=0;html=1;align=center;verticalAlign=middle;" connectable="0" vertex="1" parent="DwRocK1xrInT-ZgnkQTr-1">
          <mxGeometry x="185.00084675290145" y="320.00412040637787" as="geometry" />
        </mxCell>
        <mxCell id="DwRocK1xrInT-ZgnkQTr-43" value="&lt;font style=&quot;font-size: 14px;&quot;&gt;&lt;b&gt;send/training&amp;nbsp;&lt;/b&gt;&lt;/font&gt;" style="edgeLabel;resizable=0;html=1;align=center;verticalAlign=middle;rotation=0;" connectable="0" vertex="1" parent="DwRocK1xrInT-ZgnkQTr-1">
          <mxGeometry x="448.00084675290145" y="323.00412040637787" as="geometry">
            <mxPoint x="2" y="-3" as="offset" />
          </mxGeometry>
        </mxCell>
        <mxCell id="DwRocK1xrInT-ZgnkQTr-30" value="" style="group" vertex="1" connectable="0" parent="1">
          <mxGeometry x="1090" y="470" width="82.26" height="94.17" as="geometry" />
        </mxCell>
        <mxCell id="DwRocK1xrInT-ZgnkQTr-27" value="" style="image;points=[];aspect=fixed;html=1;align=center;shadow=0;dashed=0;image=img/lib/allied_telesis/buildings/Apartments.svg;" vertex="1" parent="DwRocK1xrInT-ZgnkQTr-30">
          <mxGeometry x="0.903956043956044" width="48.424925274725275" height="94.1651010989011" as="geometry" />
        </mxCell>
        <mxCell id="DwRocK1xrInT-ZgnkQTr-26" value="" style="image;html=1;image=img/lib/clip_art/people/Pilot_Man_128x128.png" vertex="1" parent="DwRocK1xrInT-ZgnkQTr-30">
          <mxGeometry y="13.315965249112043" width="82.26" height="77.59058366132282" as="geometry" />
        </mxCell>
        <mxCell id="DwRocK1xrInT-ZgnkQTr-31" value="&lt;font size=&quot;1&quot; style=&quot;&quot;&gt;&lt;b style=&quot;font-size: 16px;&quot;&gt;Car Agent&lt;/b&gt;&lt;/font&gt;" style="rounded=1;absoluteArcSize=1;html=1;arcSize=10;whiteSpace=wrap;points=[];strokeColor=inherit;fillColor=inherit;shadow=0;strokeWidth=2;" vertex="1" parent="1">
          <mxGeometry x="150" y="580" width="140" height="50" as="geometry" />
        </mxCell>
        <mxCell id="DwRocK1xrInT-ZgnkQTr-35" value="" style="shape=mxgraph.signs.transportation.car_3;html=1;pointerEvents=1;fillColor=#000000;strokeColor=none;verticalLabelPosition=bottom;verticalAlign=top;align=center;sketch=0;gradientColor=#2C4C70;gradientDirection=east;" vertex="1" parent="1">
          <mxGeometry x="160" y="520" width="110" height="47.14" as="geometry" />
        </mxCell>
        <mxCell id="DwRocK1xrInT-ZgnkQTr-37" value="" style="endArrow=classic;html=1;rounded=0;exitX=0.929;exitY=-0.034;exitDx=0;exitDy=0;exitPerimeter=0;strokeWidth=2;entryX=-0.009;entryY=0.502;entryDx=0;entryDy=0;entryPerimeter=0;" edge="1" parent="1" source="DwRocK1xrInT-ZgnkQTr-31" target="DwRocK1xrInT-ZgnkQTr-17">
          <mxGeometry relative="1" as="geometry">
            <mxPoint x="630" y="480" as="sourcePoint" />
            <mxPoint x="570" y="360" as="targetPoint" />
            <Array as="points">
              <mxPoint x="280" y="360" />
            </Array>
          </mxGeometry>
        </mxCell>
        <mxCell id="DwRocK1xrInT-ZgnkQTr-38" value="&lt;font style=&quot;font-size: 18px;&quot;&gt;&lt;b&gt;Pull Notification&lt;/b&gt;&lt;/font&gt;" style="edgeLabel;resizable=0;html=1;align=center;verticalAlign=middle;" connectable="0" vertex="1" parent="DwRocK1xrInT-ZgnkQTr-37">
          <mxGeometry relative="1" as="geometry">
            <mxPoint x="-46" y="80" as="offset" />
          </mxGeometry>
        </mxCell>
        <mxCell id="DwRocK1xrInT-ZgnkQTr-39" value="" style="endArrow=classic;html=1;rounded=0;strokeWidth=2;entryX=1.004;entryY=0.502;entryDx=0;entryDy=0;entryPerimeter=0;exitX=0.134;exitY=-0.004;exitDx=0;exitDy=0;exitPerimeter=0;" edge="1" parent="1" source="DwRocK1xrInT-ZgnkQTr-28" target="DwRocK1xrInT-ZgnkQTr-17">
          <mxGeometry relative="1" as="geometry">
            <mxPoint x="1080" y="570" as="sourcePoint" />
            <mxPoint x="760" y="370" as="targetPoint" />
            <Array as="points">
              <mxPoint x="1080" y="360" />
            </Array>
          </mxGeometry>
        </mxCell>
        <mxCell id="DwRocK1xrInT-ZgnkQTr-40" value="&lt;font style=&quot;font-size: 16px;&quot;&gt;&lt;b style=&quot;&quot;&gt;Report&amp;nbsp;&lt;/b&gt;&lt;b&gt;Incident&lt;/b&gt;&lt;b style=&quot;&quot;&gt;&amp;nbsp;(Alert)&lt;/b&gt;&lt;/font&gt;" style="edgeLabel;resizable=0;html=1;align=center;verticalAlign=middle;" connectable="0" vertex="1" parent="DwRocK1xrInT-ZgnkQTr-39">
          <mxGeometry relative="1" as="geometry">
            <mxPoint x="50" y="70" as="offset" />
          </mxGeometry>
        </mxCell>
        <mxCell id="DwRocK1xrInT-ZgnkQTr-48" value="" style="edgeStyle=orthogonalEdgeStyle;rounded=0;orthogonalLoop=1;jettySize=auto;html=1;" edge="1" parent="1" source="DwRocK1xrInT-ZgnkQTr-47" target="DwRocK1xrInT-ZgnkQTr-1">
          <mxGeometry relative="1" as="geometry" />
        </mxCell>
        <mxCell id="DwRocK1xrInT-ZgnkQTr-50" value="" style="edgeStyle=orthogonalEdgeStyle;rounded=0;orthogonalLoop=1;jettySize=auto;html=1;" edge="1" parent="1" source="DwRocK1xrInT-ZgnkQTr-47" target="DwRocK1xrInT-ZgnkQTr-1">
          <mxGeometry relative="1" as="geometry" />
        </mxCell>
        <mxCell id="DwRocK1xrInT-ZgnkQTr-47" value="DPObserver Solution Architecture" style="text;strokeColor=none;fillColor=none;html=1;fontSize=24;fontStyle=1;verticalAlign=middle;align=center;" vertex="1" parent="1">
          <mxGeometry x="622.72" y="220" width="127.28" height="40" as="geometry" />
        </mxCell>
      </root>
    </mxGraphModel>
  </diagram>
</mxfile>
